<?xml version="1.0" encoding="UTF-8" standalone="no"?>
<!DOCTYPE svg PUBLIC "-//W3C//DTD SVG 1.1//EN" "http://www.w3.org/Graphics/SVG/1.1/DTD/svg11.dtd">
<svg width="100%" height="100%" viewBox="0 0 1000 500" version="1.1" xmlns="http://www.w3.org/2000/svg" xmlns:xlink="http://www.w3.org/1999/xlink" xml:space="preserve" xmlns:serif="http://www.serif.com/" style="fill-rule:evenodd;clip-rule:evenodd;stroke-linejoin:round;stroke-miterlimit:2;">
    <g transform="matrix(1.040481,-0.068521,0.068521,1.040481,-27.153315,68.372683)">
        <path d="M482.901,127.532C479.158,150.92 495.938,144.119 500.606,157.454C506.258,173.597 483.561,163.592 479.226,183.436C477.205,192.684 482.247,207.039 468.372,213.223C445.407,223.458 463.977,247.73 435.541,251.783C415.35,254.661 414.153,247.222 413.866,245.438C411.022,227.759 397.46,232.252 357.506,232.13C350.208,232.108 349.192,227.336 340.263,206.604C337.864,201.036 319.148,155.777 324.961,145.793C326.98,142.324 334.444,140.726 341.267,144.903C347.021,148.426 353.899,157.189 373.473,156.042C382.228,155.529 391.671,147.602 398.496,147.382C400.806,147.307 425.375,148.247 434.586,144.719C445.191,140.657 430.285,102.017 455.469,95.364C464.772,92.906 472.214,103.45 472.351,103.616C485.013,118.982 482.888,126.043 482.901,127.532Z" style="fill:rgb(130,226,121);"/>
    </g>
    <g transform="matrix(1.040481,-0.068521,0.068521,1.040481,-27.153315,68.372683)">
        <path d="M252.505,282.103C251.124,281.976 250.63,282.191 246.582,281.167C235.951,278.478 200.524,247.339 191.146,236.815C164.327,206.72 184.611,191.604 161.369,180.754C140.514,171.018 144.797,164.903 135.204,146.646C125.809,128.764 116.633,136.587 107.159,118.67C96.343,98.215 91.11,103.345 76.906,92.007C68.987,85.686 64.12,66.506 76.561,70.3C109.305,80.286 119.988,75.909 132.934,97.227C141.556,111.425 151.406,101.935 159.101,112.815C173.755,133.535 176.946,130.098 198.731,143.084C223.494,157.844 210.644,168.978 221.723,176.187C237.728,186.602 231.603,191.091 237.955,203.295C244.062,215.027 250.632,212.728 255.483,212.238C263.882,211.39 263.69,218.852 265.155,230.547C269.425,264.638 275.301,279.743 252.505,282.103Z" style="fill:rgb(130,226,121);"/>
    </g>
    <g transform="matrix(1.040481,-0.068521,0.068521,1.040481,-27.153315,68.372683)">
        <path d="M793.442,243.67C773.278,238.465 774.178,247.28 766.436,248.093C756.206,249.168 756.45,233.959 749.6,232.209C741.497,230.139 755.762,224.897 756.534,224.613C763.744,221.965 766.969,216.224 758.522,213.442C744.302,208.759 716.687,200.926 716.283,199.608C715.285,196.348 724.831,184.294 742.545,182.918C770.744,180.728 773.326,185.297 777.977,192.192C784.224,201.453 787.278,232.916 818.537,225.656C844.191,219.698 847.851,198.505 874.588,211.322C905.333,226.06 911.776,229.386 909.765,251.523C908.138,269.421 908.392,301.426 916.978,335.474C917.843,338.903 915.673,337.444 914.592,337.189C910.812,335.895 886.31,327.505 865.505,327.976C864.217,328.005 854.661,328.221 849.453,329.28C841.886,330.819 847.232,322.055 851.751,318.839C857.082,315.045 857.148,315.244 862.549,311.566L864.234,310.211C867.167,307.197 875.061,300.828 867.259,285.64C857.588,266.813 840.628,272.843 808.827,252.045C803.259,248.404 803.334,248.486 797.589,245.3L796.5,246.217C796.185,246.335 795.815,245.963 795.5,246.081C793.253,246.925 792.788,249.469 791.993,247.203C791.423,245.579 792.448,245.246 792.5,245.023L792.682,244.5L793.442,243.67ZM737.547,311.858C739.209,311.737 740.859,311.484 742.521,311.363C751.891,310.679 727.011,322.816 721.648,320.187C720.359,319.555 719.637,315.883 737.547,311.858Z" style="fill:rgb(130,226,121);"/>
    </g>
    <g transform="matrix(1.040481,-0.068521,0.068521,1.040481,-27.153315,68.372683)">
        <path d="M545.521,152.907C557.607,152.834 557.502,153.474 569.523,154.002C598.22,155.261 597.543,149.418 604.867,142.916C617.118,132.038 623.785,156.679 605.506,163.514C594.782,167.524 557.871,159.404 538.414,165.257C525.203,169.232 532.475,191.533 533.713,193.371C543.134,207.372 553.59,191.467 561.737,186.997C569.803,182.573 577.748,185.671 580.03,189.793C584.855,198.511 573.327,205.789 571.341,207.299C555.692,219.196 557.944,224.201 571.203,238.759C585.836,254.827 578.82,265.506 573.594,267.711C560.485,273.244 563.097,260.724 553.927,250.093C546.936,241.989 547.825,241.271 547.859,230.511C547.905,215.694 533.636,218.846 531.985,230.564C528.174,257.623 538.088,286.071 526.509,283.456C504.724,278.536 524.028,252.601 508.254,237.777C497.154,227.345 505.385,223.252 513.739,208.639C527.002,185.438 510.564,156.52 545.521,152.907Z" style="fill:rgb(130,226,121);"/>
    </g>
    <g transform="matrix(1.040481,-0.068521,0.068521,1.040481,-27.153315,68.372683)">
        <path d="M445.514,334.531C441.579,335.829 441.693,335.918 440.444,336.049C411.638,339.079 399.084,330.479 392.547,329.226C382.823,327.363 381.225,334.818 358.412,325.726C314.891,308.38 313.563,313.74 283.455,309.801C267.527,307.717 255.406,298.046 267.481,293.456C299.133,281.424 318.156,301.967 339.532,300.941C351.369,300.373 352.062,291.469 371.346,300.846C394.75,312.226 392.4,323.48 409.582,317.801C440.105,307.712 459.948,322.009 447.934,332.985C446.714,333.863 446.78,333.803 445.514,334.531ZM536.63,339.255C535.969,338.799 531.164,335.484 530.175,331.553C529.543,329.042 533.169,329.097 533.5,329.102C570.579,329.668 594.37,324.933 599.569,323.898C606.708,322.477 610.938,329.416 603.351,333.207C588.619,340.568 566.878,341.032 566.478,341.07L565.5,342.57L564.5,343.348L563.5,343.48L562.5,343.431L561.5,343.483L560.5,343.813L559.5,344.264L558.5,343.896L557.5,344.197L556.5,343.988L555.5,343.925L554.5,343.899L553.5,343.897L552.5,343.793L551.5,344.027L550.5,343.896L549.5,344.088L548.5,344.271L547.5,343.925L546.5,344.162L545.5,343.712L544.5,343.814L543.5,344.402L542.5,343.968L541.5,344.29C534.369,344.115 531.41,341.803 533.733,340.5C534.632,339.996 534.662,341.512 535.5,340.904C536.039,340.512 536.091,339.647 536.63,339.255ZM410.523,288.887C412.748,288.851 420.43,288.269 422.362,289.68C432.741,297.259 408.134,307.883 396.747,302.077C392.689,300.008 389.095,291.366 410.523,288.887ZM478.491,340.514C464.915,329.433 498.204,320.852 505.331,328.663C510.011,333.793 489.103,344.86 478.491,340.514ZM646.522,314.306C649.92,315.051 651.495,315.613 649.375,318.408C642.493,327.483 630.818,326.854 636.981,318.921C641.07,313.658 645.906,314.316 646.522,314.306Z" style="fill:rgb(130,226,121);"/>
    </g>
</svg>
